<?xml version="1.0" encoding="UTF-8"?>
<svg width="32px" height="32px" viewBox="0 0 32 32" version="1.1" xmlns="http://www.w3.org/2000/svg">
    <title>에어매니지먼트 파비콘</title>
    <defs>
        <linearGradient id="gradient" x1="0%" y1="0%" x2="100%" y2="100%">
            <stop offset="0%" style="stop-color:#0F172A;stop-opacity:1" />
            <stop offset="100%" style="stop-color:#3B82F6;stop-opacity:1" />
        </linearGradient>
    </defs>
    <g stroke="none" stroke-width="1" fill="none" fill-rule="evenodd">
        <circle fill="url(#gradient)" cx="16" cy="16" r="16"></circle>
        <path d="M26,16 C26,16.552 25.552,17 25,17 L19.307,17 L14.949,24 L16.029,24 C16.581,24 17.029,24.448 17.029,25 C17.029,25.552 16.581,26 16.029,26 L13,26 C12.656,26 12.334,25.83 12.142,25.552 C11.952,25.274 11.91,24.924 12.03,24.609 L14.559,17 L9,17 L7,19 L6,19 L7,14 L6,9 L7,9 L9,11 L14.559,11 L12.03,3.391 C11.91,3.076 11.952,2.726 12.142,2.448 C12.334,2.17 12.656,2 13,2 L16.029,2 C16.581,2 17.029,2.448 17.029,3 C17.029,3.552 16.581,4 16.029,4 L14.949,4 L19.307,11 L25,11 C25.552,11 26,11.448 26,12 C26,12.552 25.552,13 25,13 L18.346,13 C18.307,13 18.269,12.994 18.231,12.989 C18.174,12.982 18.117,12.971 18.061,12.956 C18.021,12.945 17.981,12.932 17.943,12.917 C17.885,12.894 17.83,12.867 17.776,12.835 C17.744,12.816 17.713,12.796 17.683,12.774 C17.63,12.734 17.581,12.689 17.536,12.638 C17.51,12.61 17.486,12.581 17.464,12.55 C17.431,12.499 17.402,12.444 17.377,12.387 C17.364,12.351 17.352,12.315 17.341,12.276 C17.327,12.223 17.318,12.168 17.312,12.112 C17.31,12.075 17.307,12.037 17.307,12 C17.307,11.963 17.31,11.925 17.312,11.888 C17.318,11.832 17.327,11.777 17.341,11.724 C17.352,11.686 17.364,11.649 17.377,11.613 C17.402,11.556 17.431,11.502 17.464,11.45 C17.486,11.419 17.51,11.39 17.536,11.362 C17.581,11.311 17.63,11.266 17.683,11.226 C17.713,11.204 17.744,11.184 17.776,11.165 C17.83,11.133 17.885,11.106 17.943,11.083 C17.981,11.068 18.021,11.055 18.061,11.044 C18.117,11.029 18.174,11.018 18.231,11.011 C18.269,11.006 18.307,11 18.346,11 L18.346,11 L18.346,13 Z" fill="#FFFFFF" fill-rule="nonzero"></path>
    </g>
</svg> 